<svg id="visual" viewBox="0 0 900 600" width="900" height="600" xmlns="http://www.w3.org/2000/svg" xmlns:xlink="http://www.w3.org/1999/xlink" version="1.1"><rect x="0" y="0" width="900" height="600" fill="#00111e"></rect><g fill="none" stroke="#A7233A" stroke-width="2"><circle r="47" cx="315" cy="83"></circle><circle r="14" cx="672" cy="537"></circle><circle r="18" cx="863" cy="322"></circle><circle r="36" cx="352" cy="483"></circle><circle r="16" cx="533" cy="571"></circle><circle r="32" cx="147" cy="305"></circle><circle r="29" cx="645" cy="60"></circle><circle r="25" cx="540" cy="397"></circle><circle r="13" cx="856" cy="6"></circle><circle r="37" cx="77" cy="552"></circle><circle r="21" cx="796" cy="99"></circle><circle r="25" cx="414" cy="352"></circle><circle r="16" cx="638" cy="397"></circle><circle r="39" cx="539" cy="217"></circle><circle r="13" cx="62" cy="5"></circle><circle r="38" cx="220" cy="550"></circle><circle r="43" cx="128" cy="81"></circle><circle r="26" cx="211" cy="202"></circle><circle r="42" cx="22" cy="350"></circle><circle r="31" cx="66" cy="200"></circle><circle r="30" cx="311" cy="288"></circle><circle r="19" cx="470" cy="92"></circle><circle r="22" cx="803" cy="517"></circle><circle r="17" cx="435" cy="564"></circle><circle r="14" cx="780" cy="196"></circle></g></svg>