<svg id="visual" viewBox="0 0 900 600" width="900" height="600" xmlns="http://www.w3.org/2000/svg" xmlns:xlink="http://www.w3.org/1999/xlink" version="1.1"><rect x="0" y="0" width="900" height="600" fill="#001220"></rect><g fill="none" stroke="#A7233A" stroke-width="2"><circle r="12" cx="893" cy="428"></circle><circle r="-1" cx="274" cy="97"></circle><circle r="1" cx="747" cy="235"></circle><circle r="3" cx="108" cy="241"></circle><circle r="-2" cx="169" cy="389"></circle><circle r="4" cx="527" cy="27"></circle><circle r="1" cx="373" cy="122"></circle><circle r="5" cx="453" cy="566"></circle><circle r="1" cx="114" cy="333"></circle><circle r="-1" cx="676" cy="509"></circle><circle r="5" cx="675" cy="374"></circle><circle r="10" cx="492" cy="270"></circle><circle r="3" cx="71" cy="332"></circle><circle r="7" cx="339" cy="585"></circle><circle r="10" cx="277" cy="363"></circle><circle r="3" cx="855" cy="468"></circle><circle r="5" cx="774" cy="402"></circle><circle r="2" cx="814" cy="129"></circle><circle r="4" cx="70" cy="40"></circle><circle r="0" cx="250" cy="457"></circle><circle r="2" cx="852" cy="44"></circle><circle r="8" cx="875" cy="255"></circle><circle r="0" cx="339" cy="257"></circle><circle r="4" cx="718" cy="117"></circle><circle r="4" cx="9" cy="145"></circle><circle r="2" cx="636" cy="404"></circle><circle r="2" cx="692" cy="283"></circle><circle r="1" cx="128" cy="557"></circle><circle r="-2" cx="882" cy="156"></circle><circle r="1" cx="874" cy="201"></circle><circle r="-2" cx="600" cy="356"></circle><circle r="2" cx="818" cy="271"></circle><circle r="3" cx="419" cy="56"></circle><circle r="-2" cx="567" cy="130"></circle><circle r="6" cx="550" cy="588"></circle><circle r="9" cx="450" cy="267"></circle><circle r="-1" cx="248" cy="219"></circle><circle r="-1" cx="729" cy="472"></circle><circle r="5" cx="111" cy="270"></circle><circle r="8" cx="108" cy="476"></circle><circle r="7" cx="667" cy="168"></circle><circle r="7" cx="515" cy="236"></circle><circle r="3" cx="865" cy="94"></circle><circle r="10" cx="840" cy="192"></circle><circle r="4" cx="447" cy="473"></circle><circle r="2" cx="587" cy="182"></circle><circle r="-1" cx="147" cy="33"></circle><circle r="-2" cx="18" cy="286"></circle><circle r="6" cx="112" cy="201"></circle><circle r="5" cx="841" cy="510"></circle><circle r="0" cx="632" cy="448"></circle><circle r="3" cx="22" cy="76"></circle><circle r="6" cx="318" cy="448"></circle><circle r="0" cx="330" cy="354"></circle><circle r="1" cx="444" cy="192"></circle><circle r="4" cx="272" cy="172"></circle><circle r="6" cx="482" cy="569"></circle><circle r="2" cx="371" cy="95"></circle><circle r="2" cx="217" cy="561"></circle><circle r="7" cx="31" cy="551"></circle><circle r="10" cx="66" cy="210"></circle><circle r="-2" cx="99" cy="92"></circle><circle r="-1" cx="301" cy="208"></circle><circle r="5" cx="676" cy="308"></circle><circle r="6" cx="49" cy="503"></circle><circle r="-2" cx="332" cy="75"></circle><circle r="7" cx="570" cy="381"></circle><circle r="2" cx="25" cy="334"></circle><circle r="10" cx="647" cy="577"></circle><circle r="-2" cx="819" cy="216"></circle><circle r="8" cx="195" cy="69"></circle><circle r="0" cx="141" cy="440"></circle><circle r="7" cx="547" cy="252"></circle><circle r="2" cx="38" cy="259"></circle><circle r="6" cx="555" cy="476"></circle><circle r="0" cx="47" cy="584"></circle><circle r="-2" cx="634" cy="155"></circle><circle r="8" cx="33" cy="407"></circle><circle r="1" cx="344" cy="461"></circle><circle r="9" cx="686" cy="81"></circle><circle r="6" cx="209" cy="327"></circle><circle r="-2" cx="386" cy="32"></circle><circle r="6" cx="282" cy="22"></circle><circle r="9" cx="80" cy="287"></circle><circle r="6" cx="141" cy="403"></circle><circle r="4" cx="573" cy="19"></circle><circle r="7" cx="164" cy="493"></circle><circle r="1" cx="860" cy="392"></circle><circle r="-1" cx="481" cy="522"></circle><circle r="4" cx="228" cy="249"></circle><circle r="0" cx="73" cy="427"></circle><circle r="8" cx="306" cy="575"></circle><circle r="-1" cx="763" cy="62"></circle><circle r="6" cx="698" cy="345"></circle><circle r="-2" cx="839" cy="104"></circle><circle r="1" cx="480" cy="299"></circle><circle r="9" cx="777" cy="526"></circle><circle r="-1" cx="30" cy="41"></circle><circle r="3" cx="776" cy="132"></circle><circle r="3" cx="259" cy="509"></circle><circle r="7" cx="197" cy="151"></circle><circle r="8" cx="62" cy="127"></circle><circle r="5" cx="151" cy="228"></circle><circle r="1" cx="273" cy="204"></circle><circle r="10" cx="46" cy="90"></circle><circle r="6" cx="519" cy="571"></circle><circle r="2" cx="111" cy="138"></circle><circle r="2" cx="460" cy="377"></circle><circle r="7" cx="91" cy="118"></circle><circle r="6" cx="148" cy="109"></circle><circle r="8" cx="666" cy="198"></circle><circle r="4" cx="281" cy="141"></circle><circle r="5" cx="729" cy="327"></circle><circle r="9" cx="193" cy="9"></circle><circle r="5" cx="538" cy="451"></circle><circle r="6" cx="465" cy="441"></circle><circle r="5" cx="808" cy="529"></circle><circle r="1" cx="448" cy="158"></circle><circle r="7" cx="621" cy="476"></circle><circle r="4" cx="789" cy="233"></circle><circle r="0" cx="301" cy="169"></circle><circle r="1" cx="165" cy="302"></circle><circle r="-2" cx="400" cy="131"></circle><circle r="10" cx="692" cy="453"></circle><circle r="5" cx="397" cy="574"></circle><circle r="9" cx="321" cy="321"></circle><circle r="8" cx="448" cy="39"></circle><circle r="8" cx="488" cy="234"></circle><circle r="3" cx="780" cy="309"></circle><circle r="4" cx="233" cy="276"></circle><circle r="3" cx="146" cy="74"></circle><circle r="10" cx="5" cy="173"></circle><circle r="4" cx="217" cy="439"></circle><circle r="-2" cx="663" cy="339"></circle><circle r="0" cx="172" cy="144"></circle><circle r="8" cx="16" cy="521"></circle><circle r="5" cx="550" cy="536"></circle><circle r="10" cx="42" cy="168"></circle><circle r="5" cx="300" cy="290"></circle><circle r="8" cx="536" cy="338"></circle><circle r="-1" cx="690" cy="423"></circle><circle r="-2" cx="504" cy="162"></circle><circle r="6" cx="274" cy="564"></circle><circle r="7" cx="704" cy="35"></circle><circle r="9" cx="26" cy="484"></circle><circle r="0" cx="787" cy="558"></circle><circle r="1" cx="879" cy="581"></circle><circle r="6" cx="546" cy="222"></circle><circle r="2" cx="225" cy="161"></circle><circle r="10" cx="382" cy="315"></circle><circle r="2" cx="134" cy="518"></circle><circle r="5" cx="602" cy="566"></circle><circle r="2" cx="883" cy="510"></circle><circle r="-2" cx="507" cy="193"></circle><circle r="1" cx="40" cy="222"></circle><circle r="-1" cx="411" cy="329"></circle><circle r="0" cx="817" cy="309"></circle><circle r="9" cx="140" cy="273"></circle><circle r="3" cx="749" cy="519"></circle><circle r="7" cx="277" cy="471"></circle><circle r="8" cx="772" cy="102"></circle><circle r="3" cx="577" cy="67"></circle><circle r="0" cx="304" cy="404"></circle><circle r="3" cx="768" cy="445"></circle><circle r="-1" cx="518" cy="281"></circle><circle r="7" cx="214" cy="219"></circle><circle r="5" cx="797" cy="366"></circle><circle r="1" cx="817" cy="24"></circle><circle r="3" cx="377" cy="247"></circle><circle r="0" cx="603" cy="309"></circle><circle r="2" cx="602" cy="539"></circle><circle r="6" cx="346" cy="35"></circle><circle r="4" cx="798" cy="451"></circle><circle r="1" cx="762" cy="267"></circle><circle r="7" cx="810" cy="584"></circle><circle r="4" cx="640" cy="112"></circle><circle r="10" cx="380" cy="348"></circle><circle r="6" cx="249" cy="308"></circle><circle r="1" cx="891" cy="346"></circle><circle r="3" cx="293" cy="248"></circle><circle r="0" cx="733" cy="297"></circle><circle r="-2" cx="243" cy="96"></circle><circle r="-1" cx="221" cy="598"></circle><circle r="10" cx="599" cy="218"></circle><circle r="0" cx="747" cy="556"></circle><circle r="1" cx="731" cy="36"></circle><circle r="10" cx="304" cy="97"></circle><circle r="8" cx="475" cy="78"></circle><circle r="5" cx="707" cy="149"></circle><circle r="-2" cx="439" cy="228"></circle><circle r="0" cx="352" cy="172"></circle><circle r="10" cx="374" cy="531"></circle><circle r="6" cx="582" cy="102"></circle><circle r="6" cx="363" cy="559"></circle><circle r="5" cx="556" cy="160"></circle><circle r="3" cx="888" cy="310"></circle><circle r="9" cx="173" cy="580"></circle><circle r="10" cx="730" cy="577"></circle><circle r="-2" cx="152" cy="344"></circle><circle r="9" cx="444" cy="73"></circle><circle r="-2" cx="354" cy="373"></circle><circle r="1" cx="198" cy="183"></circle><circle r="3" cx="859" cy="546"></circle><circle r="9" cx="194" cy="240"></circle><circle r="2" cx="475" cy="206"></circle><circle r="3" cx="479" cy="18"></circle><circle r="8" cx="249" cy="424"></circle><circle r="10" cx="245" cy="537"></circle><circle r="6" cx="496" cy="423"></circle><circle r="-1" cx="434" cy="386"></circle><circle r="2" cx="577" cy="428"></circle><circle r="4" cx="205" cy="463"></circle><circle r="3" cx="684" cy="241"></circle></g></svg>