<svg id="visual" viewBox="0 0 900 600" width="900" height="600" xmlns="http://www.w3.org/2000/svg" xmlns:xlink="http://www.w3.org/1999/xlink" version="1.1"><rect x="0" y="0" width="900" height="600" fill="#001220"></rect><path d="M0 375L18.8 370.2C37.7 365.3 75.3 355.7 112.8 359.7C150.3 363.7 187.7 381.3 225.2 393.2C262.7 405 300.3 411 337.8 411.8C375.3 412.7 412.7 408.3 450.2 399C487.7 389.7 525.3 375.3 562.8 365.3C600.3 355.3 637.7 349.7 675.2 348.3C712.7 347 750.3 350 787.8 352.2C825.3 354.3 862.7 355.7 881.3 356.3L900 357L900 601L881.3 601C862.7 601 825.3 601 787.8 601C750.3 601 712.7 601 675.2 601C637.7 601 600.3 601 562.8 601C525.3 601 487.7 601 450.2 601C412.7 601 375.3 601 337.8 601C300.3 601 262.7 601 225.2 601C187.7 601 150.3 601 112.8 601C75.3 601 37.7 601 18.8 601L0 601Z" fill="#c62368"></path><path d="M0 407L18.8 409.8C37.7 412.7 75.3 418.3 112.8 421.8C150.3 425.3 187.7 426.7 225.2 419C262.7 411.3 300.3 394.7 337.8 391C375.3 387.3 412.7 396.7 450.2 404.3C487.7 412 525.3 418 562.8 424.2C600.3 430.3 637.7 436.7 675.2 440.5C712.7 444.3 750.3 445.7 787.8 437.5C825.3 429.3 862.7 411.7 881.3 402.8L900 394L900 601L881.3 601C862.7 601 825.3 601 787.8 601C750.3 601 712.7 601 675.2 601C637.7 601 600.3 601 562.8 601C525.3 601 487.7 601 450.2 601C412.7 601 375.3 601 337.8 601C300.3 601 262.7 601 225.2 601C187.7 601 150.3 601 112.8 601C75.3 601 37.7 601 18.8 601L0 601Z" fill="#d03267"></path><path d="M0 448L18.8 450.8C37.7 453.7 75.3 459.3 112.8 455.7C150.3 452 187.7 439 225.2 430C262.7 421 300.3 416 337.8 420.8C375.3 425.7 412.7 440.3 450.2 447C487.7 453.7 525.3 452.3 562.8 455.3C600.3 458.3 637.7 465.7 675.2 469.3C712.7 473 750.3 473 787.8 465C825.3 457 862.7 441 881.3 433L900 425L900 601L881.3 601C862.7 601 825.3 601 787.8 601C750.3 601 712.7 601 675.2 601C637.7 601 600.3 601 562.8 601C525.3 601 487.7 601 450.2 601C412.7 601 375.3 601 337.8 601C300.3 601 262.7 601 225.2 601C187.7 601 150.3 601 112.8 601C75.3 601 37.7 601 18.8 601L0 601Z" fill="#da3f67"></path><path d="M0 489L18.8 489C37.7 489 75.3 489 112.8 487.8C150.3 486.7 187.7 484.3 225.2 485.5C262.7 486.7 300.3 491.3 337.8 484.8C375.3 478.3 412.7 460.7 450.2 453.2C487.7 445.7 525.3 448.3 562.8 451.2C600.3 454 637.7 457 675.2 459.7C712.7 462.3 750.3 464.7 787.8 461.8C825.3 459 862.7 451 881.3 447L900 443L900 601L881.3 601C862.7 601 825.3 601 787.8 601C750.3 601 712.7 601 675.2 601C637.7 601 600.3 601 562.8 601C525.3 601 487.7 601 450.2 601C412.7 601 375.3 601 337.8 601C300.3 601 262.7 601 225.2 601C187.7 601 150.3 601 112.8 601C75.3 601 37.7 601 18.8 601L0 601Z" fill="#e34c67"></path><path d="M0 512L18.8 507C37.7 502 75.3 492 112.8 490.2C150.3 488.3 187.7 494.7 225.2 494.7C262.7 494.7 300.3 488.3 337.8 487.2C375.3 486 412.7 490 450.2 491.7C487.7 493.3 525.3 492.7 562.8 492.3C600.3 492 637.7 492 675.2 492.5C712.7 493 750.3 494 787.8 494.3C825.3 494.7 862.7 494.3 881.3 494.2L900 494L900 601L881.3 601C862.7 601 825.3 601 787.8 601C750.3 601 712.7 601 675.2 601C637.7 601 600.3 601 562.8 601C525.3 601 487.7 601 450.2 601C412.7 601 375.3 601 337.8 601C300.3 601 262.7 601 225.2 601C187.7 601 150.3 601 112.8 601C75.3 601 37.7 601 18.8 601L0 601Z" fill="#eb5967"></path><path d="M0 553L18.8 547.2C37.7 541.3 75.3 529.7 112.8 525C150.3 520.3 187.7 522.7 225.2 527.5C262.7 532.3 300.3 539.7 337.8 542.7C375.3 545.7 412.7 544.3 450.2 543.5C487.7 542.7 525.3 542.3 562.8 536.8C600.3 531.3 637.7 520.7 675.2 519C712.7 517.3 750.3 524.7 787.8 531.3C825.3 538 862.7 544 881.3 547L900 550L900 601L881.3 601C862.7 601 825.3 601 787.8 601C750.3 601 712.7 601 675.2 601C637.7 601 600.3 601 562.8 601C525.3 601 487.7 601 450.2 601C412.7 601 375.3 601 337.8 601C300.3 601 262.7 601 225.2 601C187.7 601 150.3 601 112.8 601C75.3 601 37.7 601 18.8 601L0 601Z" fill="#f36567"></path><path d="M0 544L18.8 548.8C37.7 553.7 75.3 563.3 112.8 564C150.3 564.7 187.7 556.3 225.2 556.5C262.7 556.7 300.3 565.3 337.8 570C375.3 574.7 412.7 575.3 450.2 573C487.7 570.7 525.3 565.3 562.8 562.8C600.3 560.3 637.7 560.7 675.2 560.7C712.7 560.7 750.3 560.3 787.8 558.7C825.3 557 862.7 554 881.3 552.5L900 551L900 601L881.3 601C862.7 601 825.3 601 787.8 601C750.3 601 712.7 601 675.2 601C637.7 601 600.3 601 562.8 601C525.3 601 487.7 601 450.2 601C412.7 601 375.3 601 337.8 601C300.3 601 262.7 601 225.2 601C187.7 601 150.3 601 112.8 601C75.3 601 37.7 601 18.8 601L0 601Z" fill="#fa7268"></path></svg>